<?xml version="1.0" encoding="UTF-8" standalone="no"?>
<svg width="1024px" height="1024px" viewBox="0 0 1024 1024" version="1.1" xmlns="http://www.w3.org/2000/svg" xmlns:xlink="http://www.w3.org/1999/xlink" xmlns:sketch="http://www.bohemiancoding.com/sketch/ns">
    <!-- Generator: Sketch Beta 3.4 (14861) - http://www.bohemiancoding.com/sketch -->
    <title>website_icon</title>
    <desc>Created with Sketch Beta.</desc>
    <defs></defs>
    <g id="Page-1" stroke="none" stroke-width="1" fill="none" fill-rule="evenodd" sketch:type="MSPage">
        <g id="website_icon" sketch:type="MSArtboardGroup">
            <rect id="Rectangle-1" fill="#000000" sketch:type="MSShapeGroup" x="0" y="0" width="1024" height="1024"></rect>
            <path d="M319,548.6 C319,532.59992 321.466642,518.26673 326.4,505.6 C331.333358,492.93327 337.866626,482.200044 346,473.4 C354.133374,464.599956 363.399948,457.86669 373.8,453.2 C384.200052,448.53331 394.999944,446.2 406.2,446.2 C418.466728,446.2 429.466618,448.333312 439.2,452.6 C448.933382,456.866688 457.066634,462.99996 463.6,471 C470.133366,479.00004 475.133316,488.599944 478.6,499.8 C482.066684,511.000056 483.8,523.533264 483.8,537.4 C483.8,544.600036 483.400004,550.599976 482.6,555.4 L351.4,555.4 C352.73334,576.466772 359.199942,593.133272 370.8,605.4 C382.400058,617.666728 397.53324,623.8 416.2,623.8 C425.53338,623.8 434.133294,622.400014 442,619.6 C449.866706,616.799986 457.399964,613.133356 464.6,608.6 L476.2,630.2 C467.666624,635.53336 458.200052,640.19998 447.8,644.2 C437.399948,648.20002 425.5334,650.2 412.2,650.2 C399.133268,650.2 386.93339,647.86669 375.6,643.2 C364.26661,638.53331 354.400042,631.86671 346,623.2 C337.599958,614.53329 331.000024,603.933396 326.2,591.4 C321.399976,578.866604 319,564.60008 319,548.6 L319,548.6 Z M455,533.8 C455,513.7999 450.800042,498.533386 442.4,488 C433.999958,477.466614 422.200076,472.2 407,472.2 C400.066632,472.2 393.466698,473.599986 387.2,476.4 C380.933302,479.200014 375.266692,483.199974 370.2,488.4 C365.133308,493.600026 360.93335,499.999962 357.6,507.6 C354.26665,515.200038 352.066672,523.933284 351,533.8 L455,533.8 Z M605.4,475.8 L532.6,475.8 L532.6,451 L605.4,451 L605.4,373 L631.4,373 L631.4,451 L704.2,451 L704.2,475.8 L631.4,475.8 L631.4,553.8 L605.4,553.8 L605.4,475.8 Z" id="e+" fill="#FFFFFF" sketch:type="MSShapeGroup"></path>
        </g>
    </g>
</svg>